<svg width="655" height="252" viewBox="0 0 655 252" fill="none" xmlns="http://www.w3.org/2000/svg">
<path d="M33.48 58L22.36 36.16H16.6V58H5.48V1.28H27.64C33.08 1.28 37.4533 2.93333 40.76 6.24C44.0667 9.54666 45.72 13.7067 45.72 18.72C45.72 22.6667 44.6267 26.08 42.44 28.96C40.3067 31.7867 37.3733 33.7333 33.64 34.8L45.8 58H33.48ZM16.6 26.64H25.56C28.3333 26.64 30.4933 25.92 32.04 24.48C33.64 23.04 34.44 21.1467 34.44 18.8C34.44 16.4 33.64 14.48 32.04 13.04C30.4933 11.6 28.3333 10.88 25.56 10.88H16.6V26.64ZM61.3463 33.84H78.9463C78.8396 31.6533 78.0396 29.8133 76.5463 28.32C75.1063 26.8267 72.9729 26.08 70.1463 26.08C67.5863 26.08 65.5063 26.88 63.9063 28.48C62.3063 30.08 61.4529 31.8667 61.3463 33.84ZM79.9863 44.08L88.8663 46.72C87.7996 50.3467 85.6929 53.3333 82.5463 55.68C79.4529 58.0267 75.5863 59.2 70.9463 59.2C65.2929 59.2 60.4929 57.3067 56.5463 53.52C52.5996 49.68 50.6263 44.56 50.6263 38.16C50.6263 32.08 52.5463 27.12 56.3863 23.28C60.2263 19.3867 64.7596 17.44 69.9863 17.44C76.0663 17.44 80.8129 19.2533 84.2263 22.88C87.6929 26.5067 89.4263 31.4933 89.4263 37.84C89.4263 38.2667 89.3996 38.7467 89.3463 39.28C89.3463 39.8133 89.3463 40.24 89.3463 40.56L89.2663 41.12H61.1063C61.2129 43.68 62.2263 45.8133 64.1463 47.52C66.0663 49.2267 68.3596 50.08 71.0263 50.08C75.5596 50.08 78.5463 48.08 79.9863 44.08ZM119.5 18.64H130.7L139.18 44L146.46 18.64H157.02L144.7 58H134.06L124.86 31.12L115.82 58H105.02L92.46 18.64H103.66L110.94 43.92L119.5 18.64ZM161.108 47.28C161.108 43.92 162.201 41.2267 164.388 39.2C166.575 37.1733 169.401 35.8933 172.868 35.36L182.548 33.92C184.521 33.6533 185.508 32.72 185.508 31.12C185.508 29.6267 184.921 28.4 183.748 27.44C182.628 26.48 181.001 26 178.868 26C176.628 26 174.841 26.6133 173.508 27.84C172.228 29.0667 171.508 30.5867 171.348 32.4L161.908 30.4C162.281 26.9867 163.961 23.9733 166.948 21.36C169.935 18.7467 173.881 17.44 178.788 17.44C184.655 17.44 188.975 18.8533 191.748 21.68C194.521 24.4533 195.908 28.0267 195.908 32.4V51.76C195.908 54.1067 196.068 56.1867 196.388 58H186.628C186.361 56.8267 186.228 55.2533 186.228 53.28C183.721 57.1733 179.855 59.12 174.628 59.12C170.575 59.12 167.295 57.9467 164.788 55.6C162.335 53.2533 161.108 50.48 161.108 47.28ZM176.868 51.2C179.375 51.2 181.428 50.5067 183.028 49.12C184.681 47.68 185.508 45.3333 185.508 42.08V40.32L176.628 41.68C173.375 42.16 171.748 43.8133 171.748 46.64C171.748 47.92 172.201 49.0133 173.108 49.92C174.015 50.7733 175.268 51.2 176.868 51.2ZM230.633 18.48V29.2C229.566 28.9867 228.5 28.88 227.433 28.88C224.393 28.88 221.94 29.76 220.073 31.52C218.206 33.2267 217.273 36.0533 217.273 40V58H206.633V18.64H216.953V24.48C218.873 20.3733 222.606 18.32 228.153 18.32C228.74 18.32 229.566 18.3733 230.633 18.48ZM275.247 0.0799971V50.88C275.247 53.4933 275.354 55.8667 275.567 58H265.407C265.14 56.6667 265.007 55.1467 265.007 53.44C264.1 55.0933 262.66 56.4267 260.687 57.44C258.767 58.4533 256.527 58.96 253.967 58.96C248.367 58.96 243.754 57.0133 240.127 53.12C236.554 49.1733 234.767 44.2133 234.767 38.24C234.767 32.4267 236.527 27.5467 240.047 23.6C243.62 19.6533 248.154 17.68 253.647 17.68C259.3 17.68 263.007 19.3067 264.767 22.56V0.0799971H275.247ZM245.487 38.24C245.487 41.7067 246.394 44.4533 248.207 46.48C250.02 48.4533 252.367 49.44 255.247 49.44C258.074 49.44 260.394 48.4267 262.207 46.4C264.02 44.3733 264.927 41.6267 264.927 38.16C264.927 34.7467 264.02 32.08 262.207 30.16C260.394 28.1867 258.074 27.2 255.247 27.2C252.42 27.2 250.074 28.1867 248.207 30.16C246.394 32.1333 245.487 34.8267 245.487 38.24ZM283.429 47.04L292.549 45.04C292.656 46.7467 293.323 48.1867 294.549 49.36C295.829 50.48 297.563 51.04 299.749 51.04C301.403 51.04 302.683 50.6667 303.589 49.92C304.496 49.1733 304.949 48.24 304.949 47.12C304.949 45.1467 303.536 43.8667 300.709 43.28L295.509 42.08C291.829 41.28 289.056 39.84 287.189 37.76C285.376 35.68 284.469 33.2 284.469 30.32C284.469 26.7467 285.856 23.7067 288.629 21.2C291.456 18.6933 294.976 17.44 299.189 17.44C301.856 17.44 304.203 17.84 306.229 18.64C308.256 19.3867 309.829 20.3733 310.949 21.6C312.069 22.7733 312.923 23.9733 313.509 25.2C314.096 26.4267 314.469 27.6267 314.629 28.8L305.749 30.8C305.536 29.4133 304.896 28.1867 303.829 27.12C302.816 26.0533 301.296 25.52 299.269 25.52C297.883 25.52 296.683 25.8933 295.669 26.64C294.709 27.3867 294.229 28.32 294.229 29.44C294.229 31.36 295.429 32.5333 297.829 32.96L303.429 34.16C307.216 34.96 310.096 36.4267 312.069 38.56C314.096 40.6933 315.109 43.2533 315.109 46.24C315.109 49.76 313.776 52.8 311.109 55.36C308.443 57.92 304.683 59.2 299.829 59.2C297.056 59.2 294.576 58.8 292.389 58C290.203 57.1467 288.496 56.08 287.269 54.8C286.096 53.4667 285.189 52.16 284.549 50.88C283.963 49.5467 283.589 48.2667 283.429 47.04ZM340.07 47.04L349.19 45.04C349.297 46.7467 349.963 48.1867 351.19 49.36C352.47 50.48 354.203 51.04 356.39 51.04C358.043 51.04 359.323 50.6667 360.23 49.92C361.137 49.1733 361.59 48.24 361.59 47.12C361.59 45.1467 360.177 43.8667 357.35 43.28L352.15 42.08C348.47 41.28 345.697 39.84 343.83 37.76C342.017 35.68 341.11 33.2 341.11 30.32C341.11 26.7467 342.497 23.7067 345.27 21.2C348.097 18.6933 351.617 17.44 355.83 17.44C358.497 17.44 360.843 17.84 362.87 18.64C364.897 19.3867 366.47 20.3733 367.59 21.6C368.71 22.7733 369.563 23.9733 370.15 25.2C370.737 26.4267 371.11 27.6267 371.27 28.8L362.39 30.8C362.177 29.4133 361.537 28.1867 360.47 27.12C359.457 26.0533 357.937 25.52 355.91 25.52C354.523 25.52 353.323 25.8933 352.31 26.64C351.35 27.3867 350.87 28.32 350.87 29.44C350.87 31.36 352.07 32.5333 354.47 32.96L360.07 34.16C363.857 34.96 366.737 36.4267 368.71 38.56C370.737 40.6933 371.75 43.2533 371.75 46.24C371.75 49.76 370.417 52.8 367.75 55.36C365.083 57.92 361.323 59.2 356.47 59.2C353.697 59.2 351.217 58.8 349.03 58C346.843 57.1467 345.137 56.08 343.91 54.8C342.737 53.4667 341.83 52.16 341.19 50.88C340.603 49.5467 340.23 48.2667 340.07 47.04ZM402 18.64H413.2L421.68 44L428.96 18.64H439.52L427.2 58H416.56L407.36 31.12L398.32 58H387.52L374.96 18.64H386.16L393.44 43.92L402 18.64ZM443.608 47.28C443.608 43.92 444.701 41.2267 446.888 39.2C449.075 37.1733 451.901 35.8933 455.368 35.36L465.048 33.92C467.021 33.6533 468.008 32.72 468.008 31.12C468.008 29.6267 467.421 28.4 466.248 27.44C465.128 26.48 463.501 26 461.368 26C459.128 26 457.341 26.6133 456.008 27.84C454.728 29.0667 454.008 30.5867 453.848 32.4L444.408 30.4C444.781 26.9867 446.461 23.9733 449.448 21.36C452.435 18.7467 456.381 17.44 461.288 17.44C467.155 17.44 471.475 18.8533 474.248 21.68C477.021 24.4533 478.408 28.0267 478.408 32.4V51.76C478.408 54.1067 478.568 56.1867 478.888 58H469.128C468.861 56.8267 468.728 55.2533 468.728 53.28C466.221 57.1733 462.355 59.12 457.128 59.12C453.075 59.12 449.795 57.9467 447.288 55.6C444.835 53.2533 443.608 50.48 443.608 47.28ZM459.368 51.2C461.875 51.2 463.928 50.5067 465.528 49.12C467.181 47.68 468.008 45.3333 468.008 42.08V40.32L459.128 41.68C455.875 42.16 454.248 43.8133 454.248 46.64C454.248 47.92 454.701 49.0133 455.608 49.92C456.515 50.7733 457.768 51.2 459.368 51.2ZM486.177 60.16L495.777 57.6C496.15 59.7867 497.164 61.5733 498.817 62.96C500.47 64.3467 502.524 65.04 504.977 65.04C511.964 65.04 515.457 61.3867 515.457 54.08V51.2C514.55 52.64 513.164 53.84 511.297 54.8C509.43 55.76 507.164 56.24 504.497 56.24C499.27 56.24 494.897 54.4267 491.377 50.8C487.91 47.1733 486.177 42.6133 486.177 37.12C486.177 31.7867 487.91 27.2533 491.377 23.52C494.844 19.7867 499.217 17.92 504.497 17.92C507.377 17.92 509.777 18.4533 511.697 19.52C513.617 20.5333 514.95 21.7867 515.697 23.28V18.64H525.937V53.76C525.937 59.68 524.23 64.5867 520.817 68.48C517.404 72.4267 512.23 74.4 505.297 74.4C500.124 74.4 495.777 73.0133 492.257 70.24C488.79 67.4667 486.764 64.1067 486.177 60.16ZM506.337 47.12C509.057 47.12 511.27 46.2133 512.977 44.4C514.737 42.5867 515.617 40.16 515.617 37.12C515.617 34.1333 514.71 31.7333 512.897 29.92C511.137 28.1067 508.95 27.2 506.337 27.2C503.617 27.2 501.35 28.1067 499.537 29.92C497.777 31.7333 496.897 34.1333 496.897 37.12C496.897 40.16 497.777 42.5867 499.537 44.4C501.297 46.2133 503.564 47.12 506.337 47.12ZM47.24 100.76H29.32V147H18.2V100.76H0.28V90.28H47.24V100.76ZM57.1931 135.56C59.1665 137.533 61.5398 138.52 64.3131 138.52C67.0865 138.52 69.4331 137.533 71.3531 135.56C73.3265 133.587 74.3131 130.84 74.3131 127.32C74.3131 123.8 73.3265 121.053 71.3531 119.08C69.4331 117.107 67.0865 116.12 64.3131 116.12C61.5398 116.12 59.1665 117.107 57.1931 119.08C55.2731 121.053 54.3131 123.8 54.3131 127.32C54.3131 130.84 55.2731 133.587 57.1931 135.56ZM49.5131 112.36C53.4598 108.413 58.3931 106.44 64.3131 106.44C70.2331 106.44 75.1398 108.413 79.0331 112.36C82.9798 116.307 84.9531 121.293 84.9531 127.32C84.9531 133.347 82.9798 138.333 79.0331 142.28C75.1398 146.227 70.2331 148.2 64.3131 148.2C58.3931 148.2 53.4598 146.227 49.5131 142.28C45.6198 138.333 43.6731 133.347 43.6731 127.32C43.6731 121.293 45.6198 116.307 49.5131 112.36ZM126.718 162.52H115.438L124.718 142.04L107.998 107.64H119.918L130.398 130.68L140.078 107.64H151.438L126.718 162.52ZM166.568 135.56C168.541 137.533 170.915 138.52 173.688 138.52C176.461 138.52 178.808 137.533 180.728 135.56C182.701 133.587 183.688 130.84 183.688 127.32C183.688 123.8 182.701 121.053 180.728 119.08C178.808 117.107 176.461 116.12 173.688 116.12C170.915 116.12 168.541 117.107 166.568 119.08C164.648 121.053 163.688 123.8 163.688 127.32C163.688 130.84 164.648 133.587 166.568 135.56ZM158.888 112.36C162.835 108.413 167.768 106.44 173.688 106.44C179.608 106.44 184.515 108.413 188.408 112.36C192.355 116.307 194.328 121.293 194.328 127.32C194.328 133.347 192.355 138.333 188.408 142.28C184.515 146.227 179.608 148.2 173.688 148.2C167.768 148.2 162.835 146.227 158.888 142.28C154.995 138.333 153.048 133.347 153.048 127.32C153.048 121.293 154.995 116.307 158.888 112.36ZM228.331 147C228.117 145.933 228.011 144.52 228.011 142.76C226.997 144.52 225.477 145.853 223.451 146.76C221.477 147.613 219.371 148.04 217.131 148.04C212.491 148.04 208.837 146.573 206.171 143.64C203.504 140.653 202.171 136.947 202.171 132.52V107.64H212.811V130.36C212.811 132.707 213.424 134.627 214.651 136.12C215.877 137.56 217.664 138.28 220.011 138.28C222.304 138.28 224.117 137.587 225.451 136.2C226.784 134.76 227.451 132.867 227.451 130.52V107.64H238.091V139.88C238.091 142.387 238.224 144.76 238.491 147H228.331ZM273.446 107.48V118.2C272.379 117.987 271.312 117.88 270.246 117.88C267.206 117.88 264.752 118.76 262.886 120.52C261.019 122.227 260.086 125.053 260.086 129V147H249.446V107.64H259.766V113.48C261.686 109.373 265.419 107.32 270.966 107.32C271.552 107.32 272.379 107.373 273.446 107.48ZM298.061 136.28C298.061 132.92 299.155 130.227 301.341 128.2C303.528 126.173 306.355 124.893 309.821 124.36L319.501 122.92C321.475 122.653 322.461 121.72 322.461 120.12C322.461 118.627 321.875 117.4 320.701 116.44C319.581 115.48 317.955 115 315.821 115C313.581 115 311.795 115.613 310.461 116.84C309.181 118.067 308.461 119.587 308.301 121.4L298.861 119.4C299.235 115.987 300.915 112.973 303.901 110.36C306.888 107.747 310.835 106.44 315.741 106.44C321.608 106.44 325.928 107.853 328.701 110.68C331.475 113.453 332.861 117.027 332.861 121.4V140.76C332.861 143.107 333.021 145.187 333.341 147H323.581C323.315 145.827 323.181 144.253 323.181 142.28C320.675 146.173 316.808 148.12 311.581 148.12C307.528 148.12 304.248 146.947 301.741 144.6C299.288 142.253 298.061 139.48 298.061 136.28ZM313.821 140.2C316.328 140.2 318.381 139.507 319.981 138.12C321.635 136.68 322.461 134.333 322.461 131.08V129.32L313.581 130.68C310.328 131.16 308.701 132.813 308.701 135.64C308.701 136.92 309.155 138.013 310.061 138.92C310.968 139.773 312.221 140.2 313.821 140.2ZM365.438 107.64H376.638L385.118 133L392.398 107.64H402.958L390.638 147H379.998L370.798 120.12L361.758 147H350.958L338.398 107.64H349.598L356.878 132.92L365.438 107.64ZM416.346 122.84H433.946C433.84 120.653 433.04 118.813 431.546 117.32C430.106 115.827 427.973 115.08 425.146 115.08C422.586 115.08 420.506 115.88 418.906 117.48C417.306 119.08 416.453 120.867 416.346 122.84ZM434.986 133.08L443.866 135.72C442.8 139.347 440.693 142.333 437.546 144.68C434.453 147.027 430.586 148.2 425.946 148.2C420.293 148.2 415.493 146.307 411.546 142.52C407.6 138.68 405.626 133.56 405.626 127.16C405.626 121.08 407.546 116.12 411.386 112.28C415.226 108.387 419.76 106.44 424.986 106.44C431.066 106.44 435.813 108.253 439.226 111.88C442.693 115.507 444.426 120.493 444.426 126.84C444.426 127.267 444.4 127.747 444.346 128.28C444.346 128.813 444.346 129.24 444.346 129.56L444.266 130.12H416.106C416.213 132.68 417.226 134.813 419.146 136.52C421.066 138.227 423.36 139.08 426.026 139.08C430.56 139.08 433.546 137.08 434.986 133.08ZM449.445 136.04L458.565 134.04C458.672 135.747 459.338 137.187 460.565 138.36C461.845 139.48 463.578 140.04 465.765 140.04C467.418 140.04 468.698 139.667 469.605 138.92C470.512 138.173 470.965 137.24 470.965 136.12C470.965 134.147 469.552 132.867 466.725 132.28L461.525 131.08C457.845 130.28 455.072 128.84 453.205 126.76C451.392 124.68 450.485 122.2 450.485 119.32C450.485 115.747 451.872 112.707 454.645 110.2C457.472 107.693 460.992 106.44 465.205 106.44C467.872 106.44 470.218 106.84 472.245 107.64C474.272 108.387 475.845 109.373 476.965 110.6C478.085 111.773 478.938 112.973 479.525 114.2C480.112 115.427 480.485 116.627 480.645 117.8L471.765 119.8C471.552 118.413 470.912 117.187 469.845 116.12C468.832 115.053 467.312 114.52 465.285 114.52C463.898 114.52 462.698 114.893 461.685 115.64C460.725 116.387 460.245 117.32 460.245 118.44C460.245 120.36 461.445 121.533 463.845 121.96L469.445 123.16C473.232 123.96 476.112 125.427 478.085 127.56C480.112 129.693 481.125 132.253 481.125 135.24C481.125 138.76 479.792 141.8 477.125 144.36C474.458 146.92 470.698 148.2 465.845 148.2C463.072 148.2 460.592 147.8 458.405 147C456.218 146.147 454.512 145.08 453.285 143.8C452.112 142.467 451.205 141.16 450.565 139.88C449.978 138.547 449.605 137.267 449.445 136.04ZM500.084 135.56C502.057 137.533 504.43 138.52 507.204 138.52C509.977 138.52 512.324 137.533 514.244 135.56C516.217 133.587 517.204 130.84 517.204 127.32C517.204 123.8 516.217 121.053 514.244 119.08C512.324 117.107 509.977 116.12 507.204 116.12C504.43 116.12 502.057 117.107 500.084 119.08C498.164 121.053 497.204 123.8 497.204 127.32C497.204 130.84 498.164 133.587 500.084 135.56ZM492.404 112.36C496.35 108.413 501.284 106.44 507.204 106.44C513.124 106.44 518.03 108.413 521.924 112.36C525.87 116.307 527.844 121.293 527.844 127.32C527.844 133.347 525.87 138.333 521.924 142.28C518.03 146.227 513.124 148.2 507.204 148.2C501.284 148.2 496.35 146.227 492.404 142.28C488.51 138.333 486.564 133.347 486.564 127.32C486.564 121.293 488.51 116.307 492.404 112.36ZM546.883 147H536.243V107.64H546.403V112.44C547.416 110.627 549.016 109.187 551.203 108.12C553.389 107.053 555.629 106.52 557.923 106.52C563.629 106.52 567.523 108.707 569.603 113.08C572.429 108.707 576.589 106.52 582.083 106.52C586.083 106.52 589.443 107.773 592.163 110.28C594.936 112.787 596.323 116.52 596.323 121.48V147H586.003V123.64C586.003 121.4 585.416 119.613 584.243 118.28C583.123 116.893 581.389 116.2 579.043 116.2C576.856 116.2 575.096 116.947 573.763 118.44C572.429 119.933 571.763 121.773 571.763 123.96V147H561.203V123.64C561.203 121.4 560.616 119.613 559.443 118.28C558.269 116.893 556.536 116.2 554.243 116.2C552.003 116.2 550.216 116.947 548.883 118.44C547.549 119.88 546.883 121.72 546.883 123.96V147ZM614.862 122.84H632.462C632.355 120.653 631.555 118.813 630.062 117.32C628.622 115.827 626.489 115.08 623.662 115.08C621.102 115.08 619.022 115.88 617.422 117.48C615.822 119.08 614.969 120.867 614.862 122.84ZM633.502 133.08L642.382 135.72C641.315 139.347 639.209 142.333 636.062 144.68C632.969 147.027 629.102 148.2 624.462 148.2C618.809 148.2 614.009 146.307 610.062 142.52C606.115 138.68 604.142 133.56 604.142 127.16C604.142 121.08 606.062 116.12 609.902 112.28C613.742 108.387 618.275 106.44 623.502 106.44C629.582 106.44 634.329 108.253 637.742 111.88C641.209 115.507 642.942 120.493 642.942 126.84C642.942 127.267 642.915 127.747 642.862 128.28C642.862 128.813 642.862 129.24 642.862 129.56L642.782 130.12H614.622C614.729 132.68 615.742 134.813 617.662 136.52C619.582 138.227 621.875 139.08 624.542 139.08C629.075 139.08 632.062 137.08 633.502 133.08ZM248.582 237.2C240.422 237.2 233.542 234.48 227.942 229.04C222.342 223.6 219.542 216.48 219.542 207.68C219.542 198.933 222.369 191.813 228.022 186.32C233.729 180.827 240.529 178.08 248.422 178.08C255.675 178.08 261.489 179.92 265.862 183.6C270.289 187.28 273.142 191.707 274.422 196.88L264.022 200.16C263.222 196.96 261.542 194.267 258.982 192.08C256.422 189.84 252.902 188.72 248.422 188.72C243.782 188.72 239.702 190.373 236.182 193.68C232.715 196.987 230.982 201.653 230.982 207.68C230.982 213.44 232.689 218 236.102 221.36C239.569 224.72 243.729 226.4 248.582 226.4C253.009 226.4 256.529 225.253 259.142 222.96C261.809 220.667 263.595 217.947 264.502 214.8L274.822 217.92C274.235 220.213 273.275 222.453 271.942 224.64C270.662 226.827 268.982 228.88 266.902 230.8C264.822 232.72 262.182 234.267 258.982 235.44C255.835 236.613 252.369 237.2 248.582 237.2ZM292.428 224.56C294.401 226.533 296.774 227.52 299.548 227.52C302.321 227.52 304.668 226.533 306.588 224.56C308.561 222.587 309.548 219.84 309.548 216.32C309.548 212.8 308.561 210.053 306.588 208.08C304.668 206.107 302.321 205.12 299.548 205.12C296.774 205.12 294.401 206.107 292.428 208.08C290.508 210.053 289.548 212.8 289.548 216.32C289.548 219.84 290.508 222.587 292.428 224.56ZM284.748 201.36C288.694 197.413 293.628 195.44 299.548 195.44C305.468 195.44 310.374 197.413 314.268 201.36C318.214 205.307 320.188 210.293 320.188 216.32C320.188 222.347 318.214 227.333 314.268 231.28C310.374 235.227 305.468 237.2 299.548 237.2C293.628 237.2 288.694 235.227 284.748 231.28C280.854 227.333 278.908 222.347 278.908 216.32C278.908 210.293 280.854 205.307 284.748 201.36ZM339.226 236H328.586V196.64H338.746V201.44C339.76 199.627 341.36 198.187 343.546 197.12C345.733 196.053 347.973 195.52 350.266 195.52C355.973 195.52 359.866 197.707 361.946 202.08C364.773 197.707 368.933 195.52 374.426 195.52C378.426 195.52 381.786 196.773 384.506 199.28C387.28 201.787 388.666 205.52 388.666 210.48V236H378.346V212.64C378.346 210.4 377.76 208.613 376.586 207.28C375.466 205.893 373.733 205.2 371.386 205.2C369.2 205.2 367.44 205.947 366.106 207.44C364.773 208.933 364.106 210.773 364.106 212.96V236H353.546V212.64C353.546 210.4 352.96 208.613 351.786 207.28C350.613 205.893 348.88 205.2 346.586 205.2C344.346 205.2 342.56 205.947 341.226 207.44C339.893 208.88 339.226 210.72 339.226 212.96V236ZM410.086 236H399.446V196.64H409.606V201.44C410.619 199.627 412.219 198.187 414.406 197.12C416.592 196.053 418.832 195.52 421.126 195.52C426.832 195.52 430.726 197.707 432.806 202.08C435.632 197.707 439.792 195.52 445.286 195.52C449.286 195.52 452.646 196.773 455.366 199.28C458.139 201.787 459.526 205.52 459.526 210.48V236H449.206V212.64C449.206 210.4 448.619 208.613 447.446 207.28C446.326 205.893 444.592 205.2 442.246 205.2C440.059 205.2 438.299 205.947 436.966 207.44C435.632 208.933 434.966 210.773 434.966 212.96V236H424.406V212.64C424.406 210.4 423.819 208.613 422.646 207.28C421.472 205.893 419.739 205.2 417.446 205.2C415.206 205.2 413.419 205.947 412.086 207.44C410.752 208.88 410.086 210.72 410.086 212.96V236ZM495.753 236C495.539 234.933 495.433 233.52 495.433 231.76C494.419 233.52 492.899 234.853 490.873 235.76C488.899 236.613 486.793 237.04 484.553 237.04C479.913 237.04 476.259 235.573 473.593 232.64C470.926 229.653 469.592 225.947 469.592 221.52V196.64H480.233V219.36C480.233 221.707 480.846 223.627 482.073 225.12C483.299 226.56 485.086 227.28 487.433 227.28C489.726 227.28 491.539 226.587 492.873 225.2C494.206 223.76 494.873 221.867 494.873 219.52V196.64H505.513V228.88C505.513 231.387 505.646 233.76 505.913 236H495.753ZM527.508 213.36V236H516.868V196.64H527.188V201.52C528.308 199.6 529.908 198.133 531.988 197.12C534.068 196.107 536.254 195.6 538.548 195.6C543.188 195.6 546.708 197.067 549.108 200C551.561 202.88 552.788 206.613 552.788 211.2V236H542.148V213.04C542.148 210.693 541.534 208.8 540.308 207.36C539.134 205.92 537.321 205.2 534.868 205.2C532.628 205.2 530.841 205.973 529.508 207.52C528.174 209.067 527.508 211.013 527.508 213.36ZM574.226 236H563.586V196.64H574.226V236ZM562.306 183.76C562.306 181.947 562.946 180.4 564.226 179.12C565.506 177.787 567.053 177.12 568.866 177.12C570.68 177.12 572.226 177.76 573.506 179.04C574.786 180.32 575.426 181.893 575.426 183.76C575.426 185.52 574.786 187.04 573.506 188.32C572.226 189.6 570.68 190.24 568.866 190.24C567.053 190.24 565.506 189.6 564.226 188.32C562.946 187.04 562.306 185.52 562.306 183.76ZM598.738 184.88V196.64H606.658V206.08H598.738V222.56C598.738 224.213 599.111 225.387 599.858 226.08C600.604 226.773 601.778 227.12 603.378 227.12C604.818 227.12 605.911 227.013 606.658 226.8V235.6C605.111 236.24 603.111 236.56 600.658 236.56C596.818 236.56 593.778 235.493 591.538 233.36C589.298 231.173 588.178 228.187 588.178 224.4V206.08H581.058V196.64H583.058C585.031 196.64 586.524 196.08 587.538 194.96C588.604 193.787 589.138 192.267 589.138 190.4V184.88H598.738ZM630.155 251.52H618.875L628.155 231.04L611.435 196.64H623.355L633.835 219.68L643.515 196.64H654.875L630.155 251.52Z" fill="black"/>
</svg>
