<svg width="667" height="268" viewBox="0 0 667 268" fill="none" xmlns="http://www.w3.org/2000/svg">
<path d="M34.48 74L23.36 52.16H17.6V74H6.48V17.28H28.64C34.08 17.28 38.4533 18.9333 41.76 22.24C45.0667 25.5467 46.72 29.7067 46.72 34.72C46.72 38.6667 45.6267 42.08 43.44 44.96C41.3067 47.7867 38.3733 49.7333 34.64 50.8L46.8 74H34.48ZM17.6 42.64H26.56C29.3333 42.64 31.4933 41.92 33.04 40.48C34.64 39.04 35.44 37.1467 35.44 34.8C35.44 32.4 34.64 30.48 33.04 29.04C31.4933 27.6 29.3333 26.88 26.56 26.88H17.6V42.64ZM62.3463 49.84H79.9463C79.8396 47.6533 79.0396 45.8133 77.5463 44.32C76.1063 42.8267 73.9729 42.08 71.1463 42.08C68.5863 42.08 66.5063 42.88 64.9063 44.48C63.3063 46.08 62.4529 47.8667 62.3463 49.84ZM80.9863 60.08L89.8663 62.72C88.7996 66.3467 86.6929 69.3333 83.5463 71.68C80.4529 74.0267 76.5863 75.2 71.9463 75.2C66.2929 75.2 61.4929 73.3067 57.5463 69.52C53.5996 65.68 51.6263 60.56 51.6263 54.16C51.6263 48.08 53.5463 43.12 57.3863 39.28C61.2263 35.3867 65.7596 33.44 70.9863 33.44C77.0663 33.44 81.8129 35.2533 85.2263 38.88C88.6929 42.5067 90.4263 47.4933 90.4263 53.84C90.4263 54.2667 90.3996 54.7467 90.3463 55.28C90.3463 55.8133 90.3463 56.24 90.3463 56.56L90.2663 57.12H62.1063C62.2129 59.68 63.2263 61.8133 65.1463 63.52C67.0663 65.2267 69.3596 66.08 72.0263 66.08C76.5596 66.08 79.5463 64.08 80.9863 60.08ZM120.5 34.64H131.7L140.18 60L147.46 34.64H158.02L145.7 74H135.06L125.86 47.12L116.82 74H106.02L93.46 34.64H104.66L111.94 59.92L120.5 34.64ZM162.108 63.28C162.108 59.92 163.201 57.2267 165.388 55.2C167.575 53.1733 170.401 51.8933 173.868 51.36L183.548 49.92C185.521 49.6533 186.508 48.72 186.508 47.12C186.508 45.6267 185.921 44.4 184.748 43.44C183.628 42.48 182.001 42 179.868 42C177.628 42 175.841 42.6133 174.508 43.84C173.228 45.0667 172.508 46.5867 172.348 48.4L162.908 46.4C163.281 42.9867 164.961 39.9733 167.948 37.36C170.935 34.7467 174.881 33.44 179.788 33.44C185.655 33.44 189.975 34.8533 192.748 37.68C195.521 40.4533 196.908 44.0267 196.908 48.4V67.76C196.908 70.1067 197.068 72.1867 197.388 74H187.628C187.361 72.8267 187.228 71.2533 187.228 69.28C184.721 73.1733 180.855 75.12 175.628 75.12C171.575 75.12 168.295 73.9467 165.788 71.6C163.335 69.2533 162.108 66.48 162.108 63.28ZM177.868 67.2C180.375 67.2 182.428 66.5067 184.028 65.12C185.681 63.68 186.508 61.3333 186.508 58.08V56.32L177.628 57.68C174.375 58.16 172.748 59.8133 172.748 62.64C172.748 63.92 173.201 65.0133 174.108 65.92C175.015 66.7733 176.268 67.2 177.868 67.2ZM231.633 34.48V45.2C230.566 44.9867 229.5 44.88 228.433 44.88C225.393 44.88 222.94 45.76 221.073 47.52C219.206 49.2267 218.273 52.0533 218.273 56V74H207.633V34.64H217.953V40.48C219.873 36.3733 223.606 34.32 229.153 34.32C229.74 34.32 230.566 34.3733 231.633 34.48ZM276.247 16.08V66.88C276.247 69.4933 276.354 71.8667 276.567 74H266.407C266.14 72.6667 266.007 71.1467 266.007 69.44C265.1 71.0933 263.66 72.4267 261.687 73.44C259.767 74.4533 257.527 74.96 254.967 74.96C249.367 74.96 244.754 73.0133 241.127 69.12C237.554 65.1733 235.767 60.2133 235.767 54.24C235.767 48.4267 237.527 43.5467 241.047 39.6C244.62 35.6533 249.154 33.68 254.647 33.68C260.3 33.68 264.007 35.3067 265.767 38.56V16.08H276.247ZM246.487 54.24C246.487 57.7067 247.394 60.4533 249.207 62.48C251.02 64.4533 253.367 65.44 256.247 65.44C259.074 65.44 261.394 64.4267 263.207 62.4C265.02 60.3733 265.927 57.6267 265.927 54.16C265.927 50.7467 265.02 48.08 263.207 46.16C261.394 44.1867 259.074 43.2 256.247 43.2C253.42 43.2 251.074 44.1867 249.207 46.16C247.394 48.1333 246.487 50.8267 246.487 54.24ZM284.429 63.04L293.549 61.04C293.656 62.7467 294.323 64.1867 295.549 65.36C296.829 66.48 298.563 67.04 300.749 67.04C302.403 67.04 303.683 66.6667 304.589 65.92C305.496 65.1733 305.949 64.24 305.949 63.12C305.949 61.1467 304.536 59.8667 301.709 59.28L296.509 58.08C292.829 57.28 290.056 55.84 288.189 53.76C286.376 51.68 285.469 49.2 285.469 46.32C285.469 42.7467 286.856 39.7067 289.629 37.2C292.456 34.6933 295.976 33.44 300.189 33.44C302.856 33.44 305.203 33.84 307.229 34.64C309.256 35.3867 310.829 36.3733 311.949 37.6C313.069 38.7733 313.923 39.9733 314.509 41.2C315.096 42.4267 315.469 43.6267 315.629 44.8L306.749 46.8C306.536 45.4133 305.896 44.1867 304.829 43.12C303.816 42.0533 302.296 41.52 300.269 41.52C298.883 41.52 297.683 41.8933 296.669 42.64C295.709 43.3867 295.229 44.32 295.229 45.44C295.229 47.36 296.429 48.5333 298.829 48.96L304.429 50.16C308.216 50.96 311.096 52.4267 313.069 54.56C315.096 56.6933 316.109 59.2533 316.109 62.24C316.109 65.76 314.776 68.8 312.109 71.36C309.443 73.92 305.683 75.2 300.829 75.2C298.056 75.2 295.576 74.8 293.389 74C291.203 73.1467 289.496 72.08 288.269 70.8C287.096 69.4667 286.189 68.16 285.549 66.88C284.963 65.5467 284.589 64.2667 284.429 63.04ZM341.07 63.04L350.19 61.04C350.297 62.7467 350.963 64.1867 352.19 65.36C353.47 66.48 355.203 67.04 357.39 67.04C359.043 67.04 360.323 66.6667 361.23 65.92C362.137 65.1733 362.59 64.24 362.59 63.12C362.59 61.1467 361.177 59.8667 358.35 59.28L353.15 58.08C349.47 57.28 346.697 55.84 344.83 53.76C343.017 51.68 342.11 49.2 342.11 46.32C342.11 42.7467 343.497 39.7067 346.27 37.2C349.097 34.6933 352.617 33.44 356.83 33.44C359.497 33.44 361.843 33.84 363.87 34.64C365.897 35.3867 367.47 36.3733 368.59 37.6C369.71 38.7733 370.563 39.9733 371.15 41.2C371.737 42.4267 372.11 43.6267 372.27 44.8L363.39 46.8C363.177 45.4133 362.537 44.1867 361.47 43.12C360.457 42.0533 358.937 41.52 356.91 41.52C355.523 41.52 354.323 41.8933 353.31 42.64C352.35 43.3867 351.87 44.32 351.87 45.44C351.87 47.36 353.07 48.5333 355.47 48.96L361.07 50.16C364.857 50.96 367.737 52.4267 369.71 54.56C371.737 56.6933 372.75 59.2533 372.75 62.24C372.75 65.76 371.417 68.8 368.75 71.36C366.083 73.92 362.323 75.2 357.47 75.2C354.697 75.2 352.217 74.8 350.03 74C347.843 73.1467 346.137 72.08 344.91 70.8C343.737 69.4667 342.83 68.16 342.19 66.88C341.603 65.5467 341.23 64.2667 341.07 63.04ZM403 34.64H414.2L422.68 60L429.96 34.64H440.52L428.2 74H417.56L408.36 47.12L399.32 74H388.52L375.96 34.64H387.16L394.44 59.92L403 34.64ZM444.608 63.28C444.608 59.92 445.701 57.2267 447.888 55.2C450.075 53.1733 452.901 51.8933 456.368 51.36L466.048 49.92C468.021 49.6533 469.008 48.72 469.008 47.12C469.008 45.6267 468.421 44.4 467.248 43.44C466.128 42.48 464.501 42 462.368 42C460.128 42 458.341 42.6133 457.008 43.84C455.728 45.0667 455.008 46.5867 454.848 48.4L445.408 46.4C445.781 42.9867 447.461 39.9733 450.448 37.36C453.435 34.7467 457.381 33.44 462.288 33.44C468.155 33.44 472.475 34.8533 475.248 37.68C478.021 40.4533 479.408 44.0267 479.408 48.4V67.76C479.408 70.1067 479.568 72.1867 479.888 74H470.128C469.861 72.8267 469.728 71.2533 469.728 69.28C467.221 73.1733 463.355 75.12 458.128 75.12C454.075 75.12 450.795 73.9467 448.288 71.6C445.835 69.2533 444.608 66.48 444.608 63.28ZM460.368 67.2C462.875 67.2 464.928 66.5067 466.528 65.12C468.181 63.68 469.008 61.3333 469.008 58.08V56.32L460.128 57.68C456.875 58.16 455.248 59.8133 455.248 62.64C455.248 63.92 455.701 65.0133 456.608 65.92C457.515 66.7733 458.768 67.2 460.368 67.2ZM487.177 76.16L496.777 73.6C497.15 75.7867 498.164 77.5733 499.817 78.96C501.47 80.3467 503.524 81.04 505.977 81.04C512.964 81.04 516.457 77.3867 516.457 70.08V67.2C515.55 68.64 514.164 69.84 512.297 70.8C510.43 71.76 508.164 72.24 505.497 72.24C500.27 72.24 495.897 70.4267 492.377 66.8C488.91 63.1733 487.177 58.6133 487.177 53.12C487.177 47.7867 488.91 43.2533 492.377 39.52C495.844 35.7867 500.217 33.92 505.497 33.92C508.377 33.92 510.777 34.4533 512.697 35.52C514.617 36.5333 515.95 37.7867 516.697 39.28V34.64H526.937V69.76C526.937 75.68 525.23 80.5867 521.817 84.48C518.404 88.4267 513.23 90.4 506.297 90.4C501.124 90.4 496.777 89.0133 493.257 86.24C489.79 83.4667 487.764 80.1067 487.177 76.16ZM507.337 63.12C510.057 63.12 512.27 62.2133 513.977 60.4C515.737 58.5867 516.617 56.16 516.617 53.12C516.617 50.1333 515.71 47.7333 513.897 45.92C512.137 44.1067 509.95 43.2 507.337 43.2C504.617 43.2 502.35 44.1067 500.537 45.92C498.777 47.7333 497.897 50.1333 497.897 53.12C497.897 56.16 498.777 58.5867 500.537 60.4C502.297 62.2133 504.564 63.12 507.337 63.12ZM48.24 116.76H30.32V163H19.2V116.76H1.28V106.28H48.24V116.76ZM58.1931 151.56C60.1665 153.533 62.5398 154.52 65.3131 154.52C68.0865 154.52 70.4331 153.533 72.3531 151.56C74.3265 149.587 75.3131 146.84 75.3131 143.32C75.3131 139.8 74.3265 137.053 72.3531 135.08C70.4331 133.107 68.0865 132.12 65.3131 132.12C62.5398 132.12 60.1665 133.107 58.1931 135.08C56.2731 137.053 55.3131 139.8 55.3131 143.32C55.3131 146.84 56.2731 149.587 58.1931 151.56ZM50.5131 128.36C54.4598 124.413 59.3931 122.44 65.3131 122.44C71.2331 122.44 76.1398 124.413 80.0331 128.36C83.9798 132.307 85.9531 137.293 85.9531 143.32C85.9531 149.347 83.9798 154.333 80.0331 158.28C76.1398 162.227 71.2331 164.2 65.3131 164.2C59.3931 164.2 54.4598 162.227 50.5131 158.28C46.6198 154.333 44.6731 149.347 44.6731 143.32C44.6731 137.293 46.6198 132.307 50.5131 128.36ZM127.718 178.52H116.438L125.718 158.04L108.998 123.64H120.918L131.398 146.68L141.078 123.64H152.438L127.718 178.52ZM167.568 151.56C169.541 153.533 171.915 154.52 174.688 154.52C177.461 154.52 179.808 153.533 181.728 151.56C183.701 149.587 184.688 146.84 184.688 143.32C184.688 139.8 183.701 137.053 181.728 135.08C179.808 133.107 177.461 132.12 174.688 132.12C171.915 132.12 169.541 133.107 167.568 135.08C165.648 137.053 164.688 139.8 164.688 143.32C164.688 146.84 165.648 149.587 167.568 151.56ZM159.888 128.36C163.835 124.413 168.768 122.44 174.688 122.44C180.608 122.44 185.515 124.413 189.408 128.36C193.355 132.307 195.328 137.293 195.328 143.32C195.328 149.347 193.355 154.333 189.408 158.28C185.515 162.227 180.608 164.2 174.688 164.2C168.768 164.2 163.835 162.227 159.888 158.28C155.995 154.333 154.048 149.347 154.048 143.32C154.048 137.293 155.995 132.307 159.888 128.36ZM229.331 163C229.117 161.933 229.011 160.52 229.011 158.76C227.997 160.52 226.477 161.853 224.451 162.76C222.477 163.613 220.371 164.04 218.131 164.04C213.491 164.04 209.837 162.573 207.171 159.64C204.504 156.653 203.171 152.947 203.171 148.52V123.64H213.811V146.36C213.811 148.707 214.424 150.627 215.651 152.12C216.877 153.56 218.664 154.28 221.011 154.28C223.304 154.28 225.117 153.587 226.451 152.2C227.784 150.76 228.451 148.867 228.451 146.52V123.64H239.091V155.88C239.091 158.387 239.224 160.76 239.491 163H229.331ZM274.446 123.48V134.2C273.379 133.987 272.312 133.88 271.246 133.88C268.206 133.88 265.752 134.76 263.886 136.52C262.019 138.227 261.086 141.053 261.086 145V163H250.446V123.64H260.766V129.48C262.686 125.373 266.419 123.32 271.966 123.32C272.552 123.32 273.379 123.373 274.446 123.48ZM299.061 152.28C299.061 148.92 300.155 146.227 302.341 144.2C304.528 142.173 307.355 140.893 310.821 140.36L320.501 138.92C322.475 138.653 323.461 137.72 323.461 136.12C323.461 134.627 322.875 133.4 321.701 132.44C320.581 131.48 318.955 131 316.821 131C314.581 131 312.795 131.613 311.461 132.84C310.181 134.067 309.461 135.587 309.301 137.4L299.861 135.4C300.235 131.987 301.915 128.973 304.901 126.36C307.888 123.747 311.835 122.44 316.741 122.44C322.608 122.44 326.928 123.853 329.701 126.68C332.475 129.453 333.861 133.027 333.861 137.4V156.76C333.861 159.107 334.021 161.187 334.341 163H324.581C324.315 161.827 324.181 160.253 324.181 158.28C321.675 162.173 317.808 164.12 312.581 164.12C308.528 164.12 305.248 162.947 302.741 160.6C300.288 158.253 299.061 155.48 299.061 152.28ZM314.821 156.2C317.328 156.2 319.381 155.507 320.981 154.12C322.635 152.68 323.461 150.333 323.461 147.08V145.32L314.581 146.68C311.328 147.16 309.701 148.813 309.701 151.64C309.701 152.92 310.155 154.013 311.061 154.92C311.968 155.773 313.221 156.2 314.821 156.2ZM366.438 123.64H377.638L386.118 149L393.398 123.64H403.958L391.638 163H380.998L371.798 136.12L362.758 163H351.958L339.398 123.64H350.598L357.878 148.92L366.438 123.64ZM417.346 138.84H434.946C434.84 136.653 434.04 134.813 432.546 133.32C431.106 131.827 428.973 131.08 426.146 131.08C423.586 131.08 421.506 131.88 419.906 133.48C418.306 135.08 417.453 136.867 417.346 138.84ZM435.986 149.08L444.866 151.72C443.8 155.347 441.693 158.333 438.546 160.68C435.453 163.027 431.586 164.2 426.946 164.2C421.293 164.2 416.493 162.307 412.546 158.52C408.6 154.68 406.626 149.56 406.626 143.16C406.626 137.08 408.546 132.12 412.386 128.28C416.226 124.387 420.76 122.44 425.986 122.44C432.066 122.44 436.813 124.253 440.226 127.88C443.693 131.507 445.426 136.493 445.426 142.84C445.426 143.267 445.4 143.747 445.346 144.28C445.346 144.813 445.346 145.24 445.346 145.56L445.266 146.12H417.106C417.213 148.68 418.226 150.813 420.146 152.52C422.066 154.227 424.36 155.08 427.026 155.08C431.56 155.08 434.546 153.08 435.986 149.08ZM450.445 152.04L459.565 150.04C459.672 151.747 460.338 153.187 461.565 154.36C462.845 155.48 464.578 156.04 466.765 156.04C468.418 156.04 469.698 155.667 470.605 154.92C471.512 154.173 471.965 153.24 471.965 152.12C471.965 150.147 470.552 148.867 467.725 148.28L462.525 147.08C458.845 146.28 456.072 144.84 454.205 142.76C452.392 140.68 451.485 138.2 451.485 135.32C451.485 131.747 452.872 128.707 455.645 126.2C458.472 123.693 461.992 122.44 466.205 122.44C468.872 122.44 471.218 122.84 473.245 123.64C475.272 124.387 476.845 125.373 477.965 126.6C479.085 127.773 479.938 128.973 480.525 130.2C481.112 131.427 481.485 132.627 481.645 133.8L472.765 135.8C472.552 134.413 471.912 133.187 470.845 132.12C469.832 131.053 468.312 130.52 466.285 130.52C464.898 130.52 463.698 130.893 462.685 131.64C461.725 132.387 461.245 133.32 461.245 134.44C461.245 136.36 462.445 137.533 464.845 137.96L470.445 139.16C474.232 139.96 477.112 141.427 479.085 143.56C481.112 145.693 482.125 148.253 482.125 151.24C482.125 154.76 480.792 157.8 478.125 160.36C475.458 162.92 471.698 164.2 466.845 164.2C464.072 164.2 461.592 163.8 459.405 163C457.218 162.147 455.512 161.08 454.285 159.8C453.112 158.467 452.205 157.16 451.565 155.88C450.978 154.547 450.605 153.267 450.445 152.04ZM501.084 151.56C503.057 153.533 505.43 154.52 508.204 154.52C510.977 154.52 513.324 153.533 515.244 151.56C517.217 149.587 518.204 146.84 518.204 143.32C518.204 139.8 517.217 137.053 515.244 135.08C513.324 133.107 510.977 132.12 508.204 132.12C505.43 132.12 503.057 133.107 501.084 135.08C499.164 137.053 498.204 139.8 498.204 143.32C498.204 146.84 499.164 149.587 501.084 151.56ZM493.404 128.36C497.35 124.413 502.284 122.44 508.204 122.44C514.124 122.44 519.03 124.413 522.924 128.36C526.87 132.307 528.844 137.293 528.844 143.32C528.844 149.347 526.87 154.333 522.924 158.28C519.03 162.227 514.124 164.2 508.204 164.2C502.284 164.2 497.35 162.227 493.404 158.28C489.51 154.333 487.564 149.347 487.564 143.32C487.564 137.293 489.51 132.307 493.404 128.36ZM547.883 163H537.243V123.64H547.403V128.44C548.416 126.627 550.016 125.187 552.203 124.12C554.389 123.053 556.629 122.52 558.923 122.52C564.629 122.52 568.523 124.707 570.603 129.08C573.429 124.707 577.589 122.52 583.083 122.52C587.083 122.52 590.443 123.773 593.163 126.28C595.936 128.787 597.323 132.52 597.323 137.48V163H587.003V139.64C587.003 137.4 586.416 135.613 585.243 134.28C584.123 132.893 582.389 132.2 580.043 132.2C577.856 132.2 576.096 132.947 574.763 134.44C573.429 135.933 572.763 137.773 572.763 139.96V163H562.203V139.64C562.203 137.4 561.616 135.613 560.443 134.28C559.269 132.893 557.536 132.2 555.243 132.2C553.003 132.2 551.216 132.947 549.883 134.44C548.549 135.88 547.883 137.72 547.883 139.96V163ZM615.862 138.84H633.462C633.355 136.653 632.555 134.813 631.062 133.32C629.622 131.827 627.489 131.08 624.662 131.08C622.102 131.08 620.022 131.88 618.422 133.48C616.822 135.08 615.969 136.867 615.862 138.84ZM634.502 149.08L643.382 151.72C642.315 155.347 640.209 158.333 637.062 160.68C633.969 163.027 630.102 164.2 625.462 164.2C619.809 164.2 615.009 162.307 611.062 158.52C607.115 154.68 605.142 149.56 605.142 143.16C605.142 137.08 607.062 132.12 610.902 128.28C614.742 124.387 619.275 122.44 624.502 122.44C630.582 122.44 635.329 124.253 638.742 127.88C642.209 131.507 643.942 136.493 643.942 142.84C643.942 143.267 643.915 143.747 643.862 144.28C643.862 144.813 643.862 145.24 643.862 145.56L643.782 146.12H615.622C615.729 148.68 616.742 150.813 618.662 152.52C620.582 154.227 622.875 155.08 625.542 155.08C630.075 155.08 633.062 153.08 634.502 149.08ZM249.582 253.2C241.422 253.2 234.542 250.48 228.942 245.04C223.342 239.6 220.542 232.48 220.542 223.68C220.542 214.933 223.369 207.813 229.022 202.32C234.729 196.827 241.529 194.08 249.422 194.08C256.675 194.08 262.489 195.92 266.862 199.6C271.289 203.28 274.142 207.707 275.422 212.88L265.022 216.16C264.222 212.96 262.542 210.267 259.982 208.08C257.422 205.84 253.902 204.72 249.422 204.72C244.782 204.72 240.702 206.373 237.182 209.68C233.715 212.987 231.982 217.653 231.982 223.68C231.982 229.44 233.689 234 237.102 237.36C240.569 240.72 244.729 242.4 249.582 242.4C254.009 242.4 257.529 241.253 260.142 238.96C262.809 236.667 264.595 233.947 265.502 230.8L275.822 233.92C275.235 236.213 274.275 238.453 272.942 240.64C271.662 242.827 269.982 244.88 267.902 246.8C265.822 248.72 263.182 250.267 259.982 251.44C256.835 252.613 253.369 253.2 249.582 253.2ZM293.428 240.56C295.401 242.533 297.774 243.52 300.548 243.52C303.321 243.52 305.668 242.533 307.588 240.56C309.561 238.587 310.548 235.84 310.548 232.32C310.548 228.8 309.561 226.053 307.588 224.08C305.668 222.107 303.321 221.12 300.548 221.12C297.774 221.12 295.401 222.107 293.428 224.08C291.508 226.053 290.548 228.8 290.548 232.32C290.548 235.84 291.508 238.587 293.428 240.56ZM285.748 217.36C289.694 213.413 294.628 211.44 300.548 211.44C306.468 211.44 311.374 213.413 315.268 217.36C319.214 221.307 321.188 226.293 321.188 232.32C321.188 238.347 319.214 243.333 315.268 247.28C311.374 251.227 306.468 253.2 300.548 253.2C294.628 253.2 289.694 251.227 285.748 247.28C281.854 243.333 279.908 238.347 279.908 232.32C279.908 226.293 281.854 221.307 285.748 217.36ZM340.226 252H329.586V212.64H339.746V217.44C340.76 215.627 342.36 214.187 344.546 213.12C346.733 212.053 348.973 211.52 351.266 211.52C356.973 211.52 360.866 213.707 362.946 218.08C365.773 213.707 369.933 211.52 375.426 211.52C379.426 211.52 382.786 212.773 385.506 215.28C388.28 217.787 389.666 221.52 389.666 226.48V252H379.346V228.64C379.346 226.4 378.76 224.613 377.586 223.28C376.466 221.893 374.733 221.2 372.386 221.2C370.2 221.2 368.44 221.947 367.106 223.44C365.773 224.933 365.106 226.773 365.106 228.96V252H354.546V228.64C354.546 226.4 353.96 224.613 352.786 223.28C351.613 221.893 349.88 221.2 347.586 221.2C345.346 221.2 343.56 221.947 342.226 223.44C340.893 224.88 340.226 226.72 340.226 228.96V252ZM411.086 252H400.446V212.64H410.606V217.44C411.619 215.627 413.219 214.187 415.406 213.12C417.592 212.053 419.832 211.52 422.126 211.52C427.832 211.52 431.726 213.707 433.806 218.08C436.632 213.707 440.792 211.52 446.286 211.52C450.286 211.52 453.646 212.773 456.366 215.28C459.139 217.787 460.526 221.52 460.526 226.48V252H450.206V228.64C450.206 226.4 449.619 224.613 448.446 223.28C447.326 221.893 445.592 221.2 443.246 221.2C441.059 221.2 439.299 221.947 437.966 223.44C436.632 224.933 435.966 226.773 435.966 228.96V252H425.406V228.64C425.406 226.4 424.819 224.613 423.646 223.28C422.472 221.893 420.739 221.2 418.446 221.2C416.206 221.2 414.419 221.947 413.086 223.44C411.752 224.88 411.086 226.72 411.086 228.96V252ZM496.753 252C496.539 250.933 496.433 249.52 496.433 247.76C495.419 249.52 493.899 250.853 491.873 251.76C489.899 252.613 487.793 253.04 485.553 253.04C480.913 253.04 477.259 251.573 474.593 248.64C471.926 245.653 470.592 241.947 470.592 237.52V212.64H481.233V235.36C481.233 237.707 481.846 239.627 483.073 241.12C484.299 242.56 486.086 243.28 488.433 243.28C490.726 243.28 492.539 242.587 493.873 241.2C495.206 239.76 495.873 237.867 495.873 235.52V212.64H506.513V244.88C506.513 247.387 506.646 249.76 506.913 252H496.753ZM528.508 229.36V252H517.868V212.64H528.188V217.52C529.308 215.6 530.908 214.133 532.988 213.12C535.068 212.107 537.254 211.6 539.548 211.6C544.188 211.6 547.708 213.067 550.108 216C552.561 218.88 553.788 222.613 553.788 227.2V252H543.148V229.04C543.148 226.693 542.534 224.8 541.308 223.36C540.134 221.92 538.321 221.2 535.868 221.2C533.628 221.2 531.841 221.973 530.508 223.52C529.174 225.067 528.508 227.013 528.508 229.36ZM575.226 252H564.586V212.64H575.226V252ZM563.306 199.76C563.306 197.947 563.946 196.4 565.226 195.12C566.506 193.787 568.053 193.12 569.866 193.12C571.68 193.12 573.226 193.76 574.506 195.04C575.786 196.32 576.426 197.893 576.426 199.76C576.426 201.52 575.786 203.04 574.506 204.32C573.226 205.6 571.68 206.24 569.866 206.24C568.053 206.24 566.506 205.6 565.226 204.32C563.946 203.04 563.306 201.52 563.306 199.76ZM599.738 200.88V212.64H607.658V222.08H599.738V238.56C599.738 240.213 600.111 241.387 600.858 242.08C601.604 242.773 602.778 243.12 604.378 243.12C605.818 243.12 606.911 243.013 607.658 242.8V251.6C606.111 252.24 604.111 252.56 601.658 252.56C597.818 252.56 594.778 251.493 592.538 249.36C590.298 247.173 589.178 244.187 589.178 240.4V222.08H582.058V212.64H584.058C586.031 212.64 587.524 212.08 588.538 210.96C589.604 209.787 590.138 208.267 590.138 206.4V200.88H599.738ZM631.155 267.52H619.875L629.155 247.04L612.435 212.64H624.355L634.835 235.68L644.515 212.64H655.875L631.155 267.52Z" fill="black"/>
<path d="M9 228H187" stroke="black" stroke-width="4"/>
</svg>
